<svg xmlns="http://www.w3.org/2000/svg" width="70.012" height="15" viewBox="0 0 70.012 15">
  <g id="AIR" transform="translate(-0.988)">
    <path id="Shape" d="M11.393.049l-.02.019S11.215-.608,8,2.307L6.045,1.936l.128-.129a.491.491,0,0,0-.693-.7l-.619.622-.9-.14.047-.047a.494.494,0,0,0,0-.7.489.489,0,0,0-.693,0l-.581.583A9.232,9.232,0,0,0,.367,1.373s-.606.608-.26.956c0,0,3.993,1.179,5.792,1.984C2.752,7.419,2.967,7.634,2.967,7.634S.974,7.026.28,7.721L2.534,8.939l.019-.02L3.767,11.18c.693-.7.086-2.7.086-2.7s.215.215,3.31-2.943c.8,1.805,1.977,5.812,1.977,5.812.346.348.953-.26.953-.26a9.389,9.389,0,0,0-.061-2.374l.581-.583a.494.494,0,0,0,0-.7.489.489,0,0,0-.693,0l-.048.048-.139-.9.62-.622a.493.493,0,0,0,0-.7.487.487,0,0,0-.693,0l-.129.128-.37-1.96C12.066.208,11.393.049,11.393.049Z" transform="translate(0.988 1.988)" fill="#d83333"/>
    <text id="AIRMAIL" transform="translate(17 12)" fill="#d83333" font-size="12" font-family="Lato-BlackItalic, Lato" font-weight="800" font-style="italic" letter-spacing="0.091em"><tspan x="0" y="0">AIRMAIL</tspan></text>
  </g>
</svg>
